<svg width="44" height="44" viewBox="0 0 44 44" fill="none" xmlns="http://www.w3.org/2000/svg">
<path d="M26.2111 21.9998C26.2111 24.3255 24.3258 26.2107 22.0001 26.2107C19.6744 26.2107 17.7892 24.3255 17.7892 21.9998C17.7892 19.6741 19.6744 17.7888 22.0001 17.7888C24.3258 17.7888 26.2111 19.6741 26.2111 21.9998Z" fill="white"/>
<path d="M31.8481 14.5494C31.6456 14.0009 31.3227 13.5044 30.9031 13.0969C30.4956 12.6773 29.9994 12.3543 29.4505 12.1519C29.0054 11.979 28.3367 11.7732 27.105 11.7172C25.7727 11.6564 25.3732 11.6433 22.0001 11.6433C18.6267 11.6433 18.2272 11.6561 16.8952 11.7168C15.6635 11.7732 14.9945 11.979 14.5497 12.1519C14.0008 12.3543 13.5043 12.6773 13.0971 13.0969C12.6775 13.5044 12.3546 14.0006 12.1518 14.5494C11.9789 14.9946 11.7732 15.6636 11.7171 16.8953C11.6563 18.2273 11.6432 18.6268 11.6432 22.0002C11.6432 25.3732 11.6563 25.7727 11.7171 27.1051C11.7732 28.3368 11.9789 29.0055 12.1518 29.4506C12.3546 29.9995 12.6772 30.4956 13.0968 30.9032C13.5043 31.3228 14.0005 31.6457 14.5494 31.8481C14.9945 32.0214 15.6635 32.2271 16.8952 32.2832C18.2272 32.344 18.6264 32.3567 21.9998 32.3567C25.3735 32.3567 25.773 32.344 27.1047 32.2832C28.3364 32.2271 29.0054 32.0214 29.4505 31.8481C30.5523 31.4231 31.4231 30.5524 31.8481 29.4506C32.021 29.0055 32.2267 28.3368 32.2831 27.1051C32.3439 25.7727 32.3566 25.3732 32.3566 22.0002C32.3566 18.6268 32.3439 18.2273 32.2831 16.8953C32.2271 15.6636 32.0213 14.9946 31.8481 14.5494ZM22.0001 28.4868C18.4172 28.4868 15.5128 25.5827 15.5128 21.9998C15.5128 18.417 18.4172 15.5129 22.0001 15.5129C25.5827 15.5129 28.4871 18.417 28.4871 21.9998C28.4871 25.5827 25.5827 28.4868 22.0001 28.4868ZM28.7436 16.7724C27.9063 16.7724 27.2276 16.0936 27.2276 15.2564C27.2276 14.4192 27.9063 13.7404 28.7436 13.7404C29.5808 13.7404 30.2596 14.4192 30.2596 15.2564C30.2592 16.0936 29.5808 16.7724 28.7436 16.7724Z" fill="white"/>
<path d="M22.0001 -0.000244141C9.85165 -0.000244141 0 9.8514 0 21.9999C0 34.1484 9.85165 44 22.0001 44C34.1486 44 44.0002 34.1484 44.0002 21.9999C44.0002 9.8514 34.1486 -0.000244141 22.0001 -0.000244141ZM34.5568 27.2082C34.4957 28.553 34.2819 29.4711 33.9697 30.2748C33.3134 31.9717 31.9719 33.3131 30.275 33.9694C29.4717 34.2816 28.5532 34.4951 27.2088 34.5566C25.8616 34.618 25.4313 34.6328 22.0005 34.6328C18.5693 34.6328 18.1393 34.618 16.7918 34.5566C15.4474 34.4951 14.5289 34.2816 13.7256 33.9694C12.8823 33.6522 12.1189 33.155 11.4878 32.5122C10.8453 31.8814 10.3481 31.1177 10.0309 30.2748C9.71871 29.4714 9.50487 28.553 9.44378 27.2085C9.38167 25.861 9.36724 25.4307 9.36724 21.9999C9.36724 18.5691 9.38167 18.1387 9.44344 16.7916C9.50454 15.4468 9.71804 14.5286 10.0302 13.725C10.3475 12.8821 10.845 12.1184 11.4878 11.4876C12.1186 10.8447 12.8823 10.3476 13.7252 10.0303C14.5289 9.71813 15.447 9.50463 16.7918 9.4432C18.139 9.38177 18.5693 9.36699 22.0001 9.36699C25.4309 9.36699 25.8613 9.38177 27.2084 9.44353C28.5532 9.50463 29.4714 9.71813 30.275 10.03C31.1179 10.3472 31.8816 10.8447 32.5128 11.4876C33.1553 12.1187 33.6528 12.8821 33.9697 13.725C34.2822 14.5286 34.4957 15.4468 34.5571 16.7916C34.6186 18.1387 34.633 18.5691 34.633 21.9999C34.633 25.4307 34.6186 25.861 34.5568 27.2082Z" fill="white"/>
</svg>
