<svg width="45" height="44" viewBox="0 0 45 44" fill="none" xmlns="http://www.w3.org/2000/svg">
<g clip-path="url(#clip0)">
<path d="M22.562 43.9231C34.6911 43.9231 44.5237 34.0906 44.5237 21.9614C44.5237 9.83234 34.6911 -0.000244141 22.562 -0.000244141C10.4329 -0.000244141 0.600342 9.83234 0.600342 21.9614C0.600342 34.0906 10.4329 43.9231 22.562 43.9231Z" fill="white"/>
<path fill-rule="evenodd" clip-rule="evenodd" d="M21.7019 30.1081H23.2048C23.2048 30.1081 23.6587 30.0557 23.8905 29.7929C24.1038 29.5516 24.097 29.0986 24.097 29.0986C24.097 29.0986 24.0677 26.9777 25.0036 26.6653C25.9262 26.3577 27.111 28.7152 28.3668 29.6217C29.3163 30.3077 30.0379 30.1573 30.0379 30.1573L33.3956 30.1081C33.3956 30.1081 35.1521 29.9943 34.3193 28.5418C34.251 28.423 33.8342 27.4673 31.8228 25.5036C29.7174 23.4484 29.9994 23.7808 32.5355 20.2257C34.08 18.0606 34.6975 16.7388 34.5046 16.1727C34.3206 15.6335 33.1847 15.776 33.1847 15.776L29.4041 15.8008C29.4041 15.8008 29.1238 15.7606 28.916 15.8912C28.7129 16.0194 28.5821 16.3181 28.5821 16.3181C28.5821 16.3181 27.9838 17.9935 27.1857 19.4183C25.5023 22.4249 24.8292 22.5836 24.5541 22.3969C23.9141 21.9618 24.0738 20.649 24.0738 19.7163C24.0738 16.8027 24.494 15.5879 23.2556 15.2734C22.8447 15.1689 22.5422 15.1 21.4913 15.0889C20.1423 15.0742 19.0006 15.0932 18.3541 15.4263C17.924 15.6478 17.5922 16.1414 17.7943 16.1698C18.0441 16.205 18.6101 16.3303 18.9101 16.76C19.2975 17.3143 19.2839 18.5593 19.2839 18.5593C19.2839 18.5593 19.5064 21.9891 18.764 22.4152C18.2544 22.7074 17.5554 22.1108 16.0545 19.3832C15.2855 17.986 14.7049 16.4416 14.7049 16.4416C14.7049 16.4416 14.5929 16.1529 14.3932 15.9986C14.1509 15.8115 13.8123 15.7519 13.8123 15.7519L10.2198 15.7767C10.2198 15.7767 9.68044 15.7925 9.48247 16.0391C9.30634 16.2585 9.46848 16.7122 9.46848 16.7122C9.46848 16.7122 12.2811 23.6329 15.4657 27.1205C18.3858 30.3181 21.7019 30.1081 21.7019 30.1081Z" fill="#0B6E77"/>
</g>
<defs>
<clipPath id="clip0">
<rect width="44.0002" height="44.0002" fill="white" transform="translate(0.600342 -0.000244141)"/>
</clipPath>
</defs>
</svg>
