<svg width="45" height="44" viewBox="0 0 45 44" fill="none" xmlns="http://www.w3.org/2000/svg">
<g clip-path="url(#clip0)">
<path d="M22.2008 -0.000244141C10.0523 -0.000244141 0.200684 9.8514 0.200684 21.9999C0.200684 34.1484 10.0523 44 22.2008 44C34.3493 44 44.2009 34.1484 44.2009 21.9999C44.2009 9.8514 34.3493 -0.000244141 22.2008 -0.000244141ZM22.6671 34.809C22.6667 34.809 22.6674 34.809 22.6671 34.809H22.6617C20.4579 34.808 18.2923 34.2554 16.3691 33.2067L9.389 35.0373L11.2571 28.2159C10.1047 26.2199 9.49843 23.9553 9.49944 21.6353C9.50246 14.3776 15.4094 8.47304 22.6671 8.47304C26.1892 8.47438 29.4955 9.84536 31.9813 12.3332C34.4674 14.8214 35.8357 18.1286 35.8344 21.6457C35.8314 28.9038 29.9238 34.809 22.6671 34.809Z" fill="white"/>
<path d="M22.6715 10.6963C16.6347 10.6963 11.7251 15.6038 11.7224 21.6363C11.7218 23.7035 12.3005 25.7166 13.3959 27.4586L13.656 27.8725L12.5503 31.9099L16.6924 30.8236L17.0922 31.0606C18.7724 32.0576 20.6986 32.585 22.6624 32.5856H22.6668C28.6989 32.5856 33.6084 27.6778 33.6111 21.645C33.6121 18.7214 32.4748 15.9727 30.4086 13.9049C28.3424 11.837 25.5944 10.6973 22.6715 10.6963ZM29.1088 26.34C28.8345 27.1081 27.5202 27.8094 26.8881 27.904C26.3211 27.9886 25.6041 28.0239 24.8159 27.7738C24.3379 27.622 23.7252 27.4196 22.94 27.0809C19.6398 25.6562 17.4843 22.3342 17.3198 22.1146C17.1553 21.8951 15.9764 20.3311 15.9764 18.712C15.9764 17.0933 16.8263 16.2974 17.1278 15.9684C17.4296 15.6391 17.7861 15.5568 18.0053 15.5568C18.2245 15.5568 18.4441 15.5588 18.6357 15.5682C18.8378 15.5783 19.1091 15.4914 19.3759 16.1329C19.6502 16.7915 20.3082 18.4102 20.3904 18.5747C20.4727 18.7395 20.5274 18.9316 20.4179 19.1511C20.3082 19.3707 19.9436 19.8443 19.5955 20.276C19.4495 20.457 19.2591 20.6181 19.4511 20.9474C19.6428 21.2764 20.3035 22.3536 21.2814 23.2258C22.5382 24.3463 23.5983 24.6934 23.9273 24.8583C24.2559 25.0228 24.448 24.9952 24.64 24.776C24.8317 24.5565 25.4624 23.8156 25.6816 23.4863C25.9009 23.157 26.1204 23.212 26.4219 23.3218C26.7236 23.4312 28.341 24.2272 28.67 24.3916C28.999 24.5565 29.2182 24.6387 29.3004 24.776C29.383 24.9133 29.383 25.5716 29.1088 26.34Z" fill="white"/>
</g>
<defs>
<clipPath id="clip0">
<rect width="44.0002" height="44.0002" fill="white" transform="translate(0.200684 -0.000244141)"/>
</clipPath>
</defs>
</svg>
