<svg width="18" height="18" viewBox="0 0 18 18" fill="none" xmlns="http://www.w3.org/2000/svg">
<g clip-path="url(#clip0)">
<path d="M13.3736 7.61821C13.6136 6.59346 13.3138 5.53836 12.5714 4.79595C11.8289 4.05355 10.7738 3.75362 9.74902 3.99381L9.98976 5.02104C10.6568 4.86489 11.3429 5.05963 11.8253 5.54207C12.3077 6.0245 12.5025 6.71074 12.3462 7.37747L13.3736 7.61821Z" fill="#05474D"/>
<path d="M13.4553 3.91188C14.5228 4.97934 14.9537 6.49724 14.6081 7.97202L15.6354 8.21276C16.0649 6.37996 15.5289 4.49319 14.2014 3.16576C13.541 2.50535 12.7181 2.02634 11.8219 1.7808C10.9543 1.54308 10.0318 1.52605 9.1543 1.73163L9.39504 2.75899C10.87 2.41334 12.3879 2.84441 13.4553 3.91188Z" fill="#05474D"/>
<path d="M2.04102 1.20427L3.28069 -0.0354004L8.1037 4.78761L6.86403 6.02729L2.04102 1.20427Z" fill="#05474D"/>
<path d="M11.9727 11.1351L13.2123 9.89539L18.0353 14.7184L16.7957 15.9581L11.9727 11.1351Z" fill="#05474D"/>
<path d="M8.45608 9.58721C7.57841 8.70968 6.81376 7.78463 6.1771 6.83197L1.29544 1.95032L0.804352 2.44141L0.789932 2.45638C-0.146655 3.47001 -0.213809 5.18141 0.60083 7.27541C1.36521 9.24032 2.8323 11.3685 4.7317 13.2679C6.6539 15.1901 8.80421 16.6656 10.7867 17.4227C11.7341 17.7846 12.6001 17.9646 13.3574 17.9646C14.2949 17.9646 15.0653 17.6883 15.6145 17.1391L16.0494 16.7042L11.2112 11.8661C10.2577 11.2286 9.33252 10.4636 8.45608 9.58721Z" fill="#05474D"/>
</g>
<defs>
<clipPath id="clip0">
<rect width="18" height="18" fill="white" transform="translate(0 -0.000244141)"/>
</clipPath>
</defs>
</svg>
