<svg width="18" height="18" viewBox="0 0 18 18" fill="none" xmlns="http://www.w3.org/2000/svg">
<g clip-path="url(#clip0)">
<path d="M13.3736 7.61846C13.6136 6.5937 13.3138 5.5386 12.5714 4.7962C11.8289 4.0538 10.7738 3.75387 9.74902 3.99406L9.98976 5.02128C10.6568 4.86514 11.3429 5.05987 11.8253 5.54231C12.3077 6.02475 12.5025 6.71098 12.3462 7.37772L13.3736 7.61846Z" fill="#08818C"/>
<path d="M13.4553 3.91212C14.5228 4.97958 14.9537 6.49749 14.6081 7.97227L15.6354 8.21301C16.0649 6.38021 15.5289 4.49344 14.2014 3.16601C13.541 2.50559 12.7181 2.02659 11.8219 1.78104C10.9543 1.54332 10.0318 1.52629 9.1543 1.73188L9.39504 2.75924C10.87 2.41358 12.3879 2.84466 13.4553 3.91212Z" fill="#08818C"/>
<path d="M2.04102 1.20452L3.28069 -0.0351562L8.1037 4.78786L6.86403 6.02753L2.04102 1.20452Z" fill="#08818C"/>
<path d="M11.9727 11.1353L13.2123 9.89563L18.0353 14.7186L16.7957 15.9583L11.9727 11.1353Z" fill="#08818C"/>
<path d="M8.45608 9.58746C7.57841 8.70992 6.81376 7.78487 6.1771 6.83221L1.29544 1.95056L0.804352 2.44165L0.789932 2.45662C-0.146655 3.47025 -0.213809 5.18165 0.60083 7.27565C1.36521 9.24056 2.8323 11.3688 4.7317 13.2682C6.6539 15.1904 8.80421 16.6658 10.7867 17.4229C11.7341 17.7848 12.6001 17.9648 13.3574 17.9648C14.2949 17.9648 15.0653 17.6885 15.6145 17.1393L16.0494 16.7044L11.2112 11.8663C10.2577 11.2288 9.33252 10.4639 8.45608 9.58746Z" fill="#08818C"/>
</g>
<defs>
<clipPath id="clip0">
<rect width="18" height="18" fill="white"/>
</clipPath>
</defs>
</svg>
