<svg width="18" height="18" viewBox="0 0 18 18" fill="none" xmlns="http://www.w3.org/2000/svg">
<g clip-path="url(#clip0)">
<path d="M9 3.33984C5.87906 3.33984 3.33984 5.87892 3.33984 9C3.33984 12.1211 5.87906 14.6602 9 14.6602C12.1209 14.6602 14.6602 12.1211 14.6602 9C14.6602 5.87892 12.1209 3.33984 9 3.33984ZM12.0821 9.52734H8.47266V4.6523H9.52734V8.47266H12.0821V9.52734Z" fill="#08818C"/>
<path d="M15.364 2.63603C13.6641 0.936172 11.4039 0 9 0C6.59605 0 4.33589 0.936172 2.63603 2.63603C0.936172 4.33589 0 6.59605 0 9C0 11.4039 0.936172 13.6641 2.63603 15.364C4.33589 17.0638 6.59605 18 9 18C11.4039 18 13.6641 17.0638 15.364 15.364C17.0638 13.6641 18 11.4039 18 9C18 6.59605 17.0638 4.33589 15.364 2.63603ZM9 15.7148C5.29747 15.7148 2.28516 12.7025 2.28516 9C2.28516 5.29747 5.29747 2.28516 9 2.28516C12.7025 2.28516 15.7148 5.29747 15.7148 9C15.7148 12.7025 12.7025 15.7148 9 15.7148Z" fill="#08818C"/>
</g>
<defs>
<clipPath id="clip0">
<rect width="18" height="18" fill="white"/>
</clipPath>
</defs>
</svg>
