<svg width="18" height="18" viewBox="0 0 18 18" fill="none" xmlns="http://www.w3.org/2000/svg">
<path d="M9.01358 3.65527C7.33844 3.65527 5.97559 5.01813 5.97559 6.69313C5.97559 8.36827 7.33844 9.73112 9.01358 9.73112C10.6887 9.73112 12.0514 8.36827 12.0514 6.69313C12.0514 5.01813 10.6886 3.65527 9.01358 3.65527Z" fill="#08818C"/>
<path d="M9.04105 0.000137329L9.01289 0C5.32259 0 2.32031 3.00256 2.32031 6.69327C2.32031 8.71667 3.35454 10.2949 4.50686 11.8664L9.00397 18C9.00397 18 13.2546 12.2291 13.5204 11.8666C14.6728 10.295 15.707 8.71681 15.707 6.69341C15.707 3.01176 12.7194 0.0146942 9.04105 0.000137329ZM9.01372 10.7857C6.75713 10.7857 4.92132 8.94986 4.92132 6.69327C4.92132 4.43682 6.75713 2.60101 9.01372 2.60101C11.2703 2.60101 13.1061 4.43682 13.1061 6.69327C13.1061 8.94986 11.2702 10.7857 9.01372 10.7857Z" fill="#08818C"/>
</svg>
