<svg width="83" height="83" viewBox="0 0 83 83" fill="none" xmlns="http://www.w3.org/2000/svg">
<g clip-path="url(#clip0)">
<path d="M76.8828 11.8164C72.549 5.28829 67.0129 1.69318 61.2942 1.69318C55.575 1.69318 50.0389 5.28829 45.7055 11.8164C43.9584 14.4481 41.91 20.4289 41.4996 20.4289C41.0653 20.4289 39.0404 14.4481 37.2933 11.8164C32.9599 5.28829 27.4242 1.69318 21.7046 1.69318C15.9855 1.69318 10.4493 5.28829 6.11634 11.8164C2.28656 17.5858 0 24.8624 0 31.2809C0 37.179 1.96171 41.0126 5.99779 43.0013C9.71733 44.8335 14.6966 44.8363 20.3432 44.8244C21.2436 44.8227 22.1671 44.8227 23.0664 44.8244C23.5109 44.8256 23.9514 44.8264 24.3878 44.8264C29.4862 44.8264 33.9853 44.689 37.4116 43.0009C39.1615 42.1392 40.9137 39.3567 41.4996 39.3567C42.079 39.3567 43.838 42.1392 45.5876 43.0013C49.3063 44.8335 54.2867 44.8363 59.9329 44.8244C60.8333 44.8227 61.7564 44.8227 62.6562 44.8244C63.1006 44.8256 63.5412 44.8264 63.9775 44.8264C69.0755 44.8264 73.5747 44.689 77.0018 43.0009C81.0383 41.0122 83.0004 37.1786 83.0004 31.2809C82.9994 24.8624 80.7126 17.5858 76.8828 11.8164ZM24.3876 41.0051C23.9545 41.0051 23.5163 41.0039 23.0746 41.0031C22.6222 41.0023 22.1654 41.0011 21.7046 41.0011C21.2446 41.0011 20.7876 41.0023 20.3347 41.0031C19.8929 41.0039 19.4547 41.0051 19.0221 41.0051C8.45276 41.0051 3.82046 40.0853 3.82046 31.2809C3.82046 25.5844 5.8687 19.0978 9.29966 13.9297C12.8498 8.58144 17.371 5.51404 21.7044 5.51404C26.0382 5.51404 30.5594 8.58164 34.1096 13.9297C36.0717 16.885 37.5802 20.2714 38.5131 23.6945C38.5692 23.901 38.7007 24.3142 38.2618 24.3142H32.1821C32.1821 24.3142 31.6973 24.2735 31.6973 23.598C31.6973 23.3362 31.6973 22.5501 31.6973 22.5501C31.6973 21.0762 30.4984 19.8775 29.0247 19.8775H16.8052C15.3317 19.8775 14.1326 21.076 14.1326 22.5501V30.1085C14.1326 31.582 15.3315 32.7811 16.8052 32.7811H29.0247C30.4982 32.7811 31.6973 31.5822 31.6973 30.1085C31.6973 30.1085 31.6973 29.0255 31.6973 28.6644C31.6973 28.1493 32.2834 28.1355 32.2834 28.1355H39.0389C39.3936 28.1355 39.4191 28.3653 39.4317 28.48C39.535 29.4282 39.5887 30.3647 39.5887 31.2809C39.5887 40.0853 34.9569 41.0051 24.3876 41.0051ZM63.9769 41.0051C63.5434 41.0051 63.1053 41.0039 62.6639 41.0031C62.2116 41.0023 61.7548 41.0011 61.2944 41.0011C60.8337 41.0011 60.3769 41.0023 59.924 41.0031C59.4818 41.0039 59.0441 41.0051 58.611 41.0051C48.0417 41.0051 43.4098 40.0853 43.4098 31.2809C43.4098 30.3321 43.4672 29.3615 43.578 28.3787C43.5871 28.2976 43.6323 28.1353 43.8857 28.1353H50.5899C50.5899 28.1353 51.3008 28.1914 51.3008 28.7655C51.3008 29.1013 51.3008 30.1083 51.3008 30.1083C51.3008 31.5818 52.4997 32.7809 53.9736 32.7809H66.1936C67.6669 32.7809 68.8658 31.582 68.8658 30.1083V22.5499C68.8658 21.076 67.6673 19.8773 66.1936 19.8773H53.9736C52.5001 19.8773 51.3008 21.0758 51.3008 22.5499C51.3008 22.5499 51.3008 23.4371 51.3008 23.733C51.3008 24.3071 50.7253 24.314 50.7253 24.314H44.6622C44.3836 24.314 44.3864 24.0647 44.4192 23.9399C45.3462 20.4333 46.8805 16.9556 48.8892 13.9295C52.4393 8.58124 56.9606 5.51384 61.2944 5.51384C65.6277 5.51384 70.1486 8.58144 73.6991 13.9295C77.1301 19.0976 79.1783 25.5842 79.1783 31.2807C79.1781 40.0853 74.546 41.0051 63.9769 41.0051Z" fill="#1D110E"/>
<path d="M68.9448 48.7587C66.0005 47.3081 62.1314 47.3044 57.7366 47.3136C57.0463 47.3152 56.3379 47.3152 55.6482 47.3136C51.2599 47.304 47.3858 47.3081 44.4406 48.7591C43.2309 49.3551 41.9773 51.1602 41.4992 51.1602C41.0143 51.1602 39.7675 49.3549 38.5579 48.7587C35.6135 47.3081 31.7436 47.304 27.35 47.3136C26.659 47.3152 25.9509 47.3152 25.2612 47.3136C20.8729 47.304 16.9988 47.3081 14.0538 48.7591C10.7892 50.3678 9.20201 53.4404 9.20201 58.153C9.20201 63.1635 10.9848 68.8398 13.9707 73.3386C17.3818 78.4771 21.7622 81.3068 26.3053 81.3068C30.8489 81.3068 35.2297 78.4771 38.6408 73.3386C39.7795 71.6225 41.0141 67.7781 41.4986 67.7781C41.926 67.7781 43.2179 71.6227 44.3571 73.3386C47.7682 78.4771 52.1486 81.3068 56.6917 81.3068C61.2348 81.3068 65.6152 78.4771 69.0267 73.3386C72.0122 68.8402 73.795 63.1635 73.795 58.153C73.7962 53.4398 72.2094 50.3672 68.9448 48.7587ZM39.115 60.1228H34.9859C34.9859 60.1228 34.3933 60.1688 34.3933 59.5862C34.3933 59.477 34.3933 59.1491 34.3933 59.1491C34.3933 57.7882 33.2862 56.6807 31.925 56.6807H22.5459C21.185 56.6807 20.0775 57.7882 20.0775 59.1491V64.9507C20.0775 66.3119 21.185 67.419 22.5459 67.419H31.925C33.2862 67.419 34.3933 66.3119 34.3933 64.9507C34.3933 64.9507 34.3933 64.5371 34.3933 64.3993C34.3933 63.9601 34.9099 63.9443 34.9099 63.9443H38.431C38.735 63.9443 38.6839 64.1658 38.6517 64.2766C36.6521 71.1009 31.7081 77.4861 26.3061 77.4861C19.2776 77.4861 13.0239 66.6753 13.0239 58.1536C13.0239 51.7683 16.2718 51.1334 24.2467 51.1334C24.5793 51.1334 24.9149 51.1342 25.2537 51.135C25.9493 51.1367 26.6628 51.1367 27.3587 51.135C27.698 51.1342 28.0336 51.1334 28.3657 51.1334C36.3412 51.1334 39.5894 51.7683 39.5894 58.1536C39.5894 58.6179 39.5705 59.0887 39.5343 59.5643C39.5197 59.7495 39.5456 60.1228 39.115 60.1228ZM56.6925 77.4859C51.2794 77.4859 46.3263 71.0733 44.3348 64.2331C44.3066 64.137 44.2912 63.9445 44.5782 63.9445H48.1417C48.1417 63.9445 48.6055 63.8422 48.6055 64.3488C48.6055 64.4994 48.6055 64.9507 48.6055 64.9507C48.6055 66.3119 49.713 67.419 51.0739 67.419H60.453C61.8138 67.419 62.9213 66.3119 62.9213 64.9507V59.1493C62.9213 57.7884 61.8138 56.6809 60.453 56.6809H51.0739C49.713 56.6809 48.6055 57.7884 48.6055 59.1493C48.6055 59.1493 48.6055 59.4897 48.6055 59.6032C48.6055 60.076 48.091 60.1228 48.091 60.1228H43.9532C43.4719 60.1228 43.4869 59.8306 43.4753 59.6851C43.4326 59.1681 43.4105 58.6566 43.4105 58.153C43.4105 51.7677 46.658 51.1328 54.6339 51.1328C54.9661 51.1328 55.3017 51.1336 55.6405 51.1344C56.336 51.1361 57.0496 51.1361 57.7455 51.1344C58.0843 51.1336 58.4203 51.1328 58.7525 51.1328C66.7278 51.1328 69.9762 51.7677 69.9762 58.153C69.9756 66.6751 63.7214 77.4859 56.6925 77.4859Z" fill="#1D110E"/>
</g>
<defs>
<clipPath id="clip0">
<rect width="83" height="83" fill="white"/>
</clipPath>
</defs>
</svg>
