<svg width="86" height="86" viewBox="0 0 86 86" fill="none" xmlns="http://www.w3.org/2000/svg">
<path d="M72.5752 34.5548C71.8182 34.4944 71.1139 35.0565 71.0438 35.8324C69.0187 58.2269 62.6935 83.1793 56.8853 83.1836C55.4582 82.6572 54.0682 74.7677 53.1481 69.5479C51.2221 58.6132 49.2314 47.3059 42.9945 47.2839C37.7755 47.3065 35.7322 57.5294 33.567 68.3526C32.4937 73.7181 30.6976 82.7008 29.1451 83.1798C24.4198 83.1798 17.4206 63.6249 14.9325 35.5651C14.8625 34.7901 14.1735 34.2308 13.4042 34.2854C12.6276 34.3547 12.055 35.0394 12.1236 35.8147C12.168 36.3163 16.9153 85.9989 29.1451 85.9989C32.7381 85.9989 34.1483 79.8224 36.3315 68.9046C37.8287 61.4228 40.0907 50.1161 42.9945 50.1037C46.863 50.1176 48.8909 61.6306 50.3721 70.0369C52.0645 79.6496 53.184 85.9996 56.8556 85.9996C69.1954 85.9996 73.807 36.5853 73.8529 36.0858C73.9226 35.3105 73.3509 34.6256 72.5752 34.5548Z" fill="#1D110E"/>
<path d="M56.8551 0C53.2316 0 50.1492 1.46065 47.4291 2.74911C45.8213 3.51116 43.9981 4.37533 42.9998 4.37533C42.0014 4.37533 40.1784 3.51201 38.5691 2.74911C35.8499 1.46065 32.7684 0 29.1448 0C16.4688 0 7.26819 12.8803 7.26819 30.6273C7.26819 33.8438 9.88463 36.4611 13.102 36.4611C16.3194 36.4611 18.9359 33.8441 18.9359 30.6273C18.9359 19.996 23.4206 11.6675 29.145 11.6675C30.1434 11.6675 31.9664 12.5308 33.5757 13.2937C36.2949 14.5821 39.3767 16.0428 43.0002 16.0428C46.6237 16.0428 49.7061 14.5821 52.4262 13.2937C54.034 12.5316 55.8572 11.6675 56.8555 11.6675C62.58 11.6675 67.0647 19.996 67.0647 30.6273C67.0647 33.8438 69.6811 36.4611 72.8986 36.4611C76.116 36.4611 78.7324 33.8441 78.7324 30.6273C78.7318 12.8803 69.5312 0 56.8551 0ZM72.8981 33.5441C71.2903 33.5441 69.9813 32.2358 69.9813 30.6273C69.9813 18.1555 64.3387 8.75066 56.8553 8.75066C55.2 8.75066 53.1538 9.72058 51.1768 10.6576C48.7338 11.8149 45.9666 13.126 43 13.126C40.0334 13.126 37.2661 11.8149 34.8246 10.6576C32.8463 9.72058 30.8001 8.75066 29.1448 8.75066C21.6615 8.75066 16.0188 18.1555 16.0188 30.6273C16.0188 32.236 14.7099 33.5441 13.102 33.5441C11.4942 33.5441 10.1852 32.2358 10.1852 30.6273C10.1852 14.5706 18.1599 2.91681 29.145 2.91681C32.1114 2.91681 34.8789 4.22792 37.3204 5.3852C39.2987 6.32222 41.3458 7.29214 43.0002 7.29214C44.6546 7.29214 46.7017 6.32222 48.6787 5.3852C51.1217 4.22792 53.8889 2.91681 56.8555 2.91681C67.8404 2.91681 75.8154 14.5704 75.8154 30.6273C75.8149 32.236 74.506 33.5441 72.8981 33.5441Z" fill="#1D110E"/>
</svg>
