<svg width="85" height="84" viewBox="0 0 85 84" fill="none" xmlns="http://www.w3.org/2000/svg">
<path d="M80.8585 24.7365C78.043 20.8374 74.1664 18.69 69.9446 18.69C67.6987 18.69 65.3742 19.8116 63.6097 20.8525C63.5136 20.9091 63.3094 20.956 63.3038 20.7158C62.9268 15.5106 61.2582 10.9044 58.5261 7.12119C55.2091 2.5287 50.6444 0 45.6716 0C41.7738 0 37.618 2.83508 34.581 4.90731C33.659 5.5362 32.1463 6.68754 31.7047 6.68754C31.2656 6.68754 29.7657 5.54314 28.8411 4.91128C25.8119 2.83855 21.6636 0 17.7383 0C12.7658 0 8.20081 2.5287 4.88378 7.12119C1.73425 11.4815 0 17.2194 0 23.2765C0 31.8418 2.48211 44.0077 6.63929 55.8209C8.48949 61.079 10.4611 65.6258 12.3401 68.9702C14.6279 73.0413 16.6227 75.0202 18.4382 75.0202C19.2779 75.0202 20.8134 74.5905 21.6561 71.7073C22.4124 69.1196 23.0909 66.16 23.8139 63.0051C25.5876 55.2612 28.0172 44.6545 31.5842 44.6545C31.5842 44.6545 31.9479 44.6689 31.9723 45.0442C32.7521 51.4299 34.5299 58.5238 37.0814 65.7745C38.6361 70.192 40.2931 74.0135 41.8737 76.8262C43.8306 80.3076 45.5558 82 47.1479 82C47.9052 82 49.2881 81.6177 50.0362 79.0575C50.6729 76.8796 51.2423 74.3948 51.8471 71.756C53.3137 65.352 55.3228 56.5813 58.1526 56.5813H58.3544C59.5707 56.5813 60.6993 57.974 61.805 60.8394C62.9695 63.8545 63.8628 67.901 64.7265 71.815C65.3044 74.432 65.8503 76.9042 66.4685 79.0491C67.2027 81.5971 68.5733 81.9792 69.3252 81.9794C70.9116 81.9794 72.636 80.2612 74.5959 76.7275C76.1721 73.8867 77.8325 70.0283 79.3975 65.5695C82.9051 55.5711 85 45.4255 85 38.4304C84.9996 33.2968 83.5292 28.4334 80.8585 24.7365ZM31.5065 38.4306C31.5065 39.0851 31.5244 39.7762 31.5595 40.4937C31.5627 40.5569 31.597 40.7715 31.3463 40.7507C28.5357 40.7594 26.4472 43.1335 24.5031 48.1445C22.9829 52.063 21.8353 57.0752 20.7253 61.9222L20.7175 61.9567C20.0162 65.0161 19.354 67.9055 18.637 70.356C18.5421 70.6813 18.4741 70.9854 18.3678 71.0276C18.0833 71.1405 16.991 70.2885 14.9767 66.7045C13.2407 63.6147 11.3255 59.1866 9.583 54.2357C5.6519 43.066 3.21011 31.2027 3.21011 23.2758C3.21011 13.7857 8.64456 3.96956 17.7381 3.96956C20.0956 3.96956 23.2062 5.30796 26.0591 7.54963C26.4729 7.87462 27.0667 8.43925 27.6412 8.98503C27.8731 9.20607 28.1016 9.42314 28.3147 9.62161C29.0032 10.2584 29.9324 11.0917 31.0237 11.8859C31.5972 12.3049 32.1196 12.6767 32.7034 12.9839C35.0703 14.2258 37.5795 14.8561 40.1611 14.8561C42.7977 14.8561 46.677 14.0179 46.613 13.3667C46.5493 12.7157 41.8697 13.6472 37.0102 11.6993C35.7478 11.1932 34.1206 10.6251 34.1214 9.98802C34.1216 9.81238 34.5786 9.50228 34.9012 9.26412C35.2456 9.00984 35.6362 8.72107 36.1335 8.38169C38.8626 6.51959 42.6003 3.96956 45.6718 3.96956C54.6028 3.96956 60.0036 13.4369 60.1945 22.765C60.197 22.8687 60.209 23.059 60.0397 23.187C59.4599 23.5804 58.6059 24.2795 58.2537 24.2795C57.8539 24.2795 56.5892 23.2654 55.9549 22.8317C53.4004 21.0835 49.9014 18.6895 46.5631 18.6895C42.3409 18.6895 38.4646 20.8369 35.6487 24.736C32.977 28.4334 31.5065 33.2968 31.5065 38.4306ZM76.5518 64.0433C75.0864 68.2205 73.4836 71.9549 72.039 74.5583C70.7441 76.8927 69.9198 78.3085 69.5617 78.0252C69.4608 77.9453 69.3081 77.4737 69.2714 77.3455C68.6935 75.34 68.2806 73.3524 67.7181 70.8053C66.8188 66.7288 65.888 62.5139 64.6039 59.1871C62.93 54.8534 60.886 52.7467 58.3546 52.7467H58.1528C55.7072 52.7467 53.7069 54.837 52.0385 59.1373C50.7596 62.434 49.7955 66.6412 48.8637 70.7113C48.2751 73.2779 47.72 75.7019 47.1202 77.7541C47.0787 77.897 47.0175 78.0597 46.9507 78.0962C46.6596 78.2527 45.8267 77.1406 44.4206 74.6382C42.9756 72.0678 41.3794 68.3766 39.9254 64.2453C36.6455 54.9248 34.6081 45.0336 34.6081 38.4309C34.6081 30.6121 39.0794 22.5251 46.5623 22.5251C48.4977 22.5251 51.0605 23.6308 53.4166 25.4822C53.7526 25.7459 54.2409 26.2103 54.7212 26.6663C54.9176 26.8534 55.1112 27.037 55.2921 27.2047C55.8701 27.741 56.6524 28.4426 57.5784 29.1166C58.0665 29.4729 58.5104 29.7887 59.0092 30.0504C61.016 31.1038 63.1429 31.6381 65.3323 31.6381C67.5743 31.6381 71.8841 30.8547 71.8396 29.9688C71.8109 29.4009 66.9963 30.1452 62.7483 28.4927C61.8849 28.1568 60.6557 27.6314 60.6252 27.4279C60.5962 27.2367 60.8802 27.036 61.0373 26.9199C61.3234 26.7085 61.6473 26.4693 62.061 26.1873C64.326 24.6417 67.428 22.5251 69.9463 22.5251C77.4291 22.5251 81.9004 30.6123 81.9004 38.4309C81.8988 44.8309 79.85 54.6453 76.5518 64.0433Z" fill="#1D110E"/>
</svg>
