<svg width="85" height="85" viewBox="0 0 85 85" fill="none" xmlns="http://www.w3.org/2000/svg">
<path d="M80.8585 29.3489C78.043 26.1959 74.1664 24.4595 69.9446 24.4595C67.6987 24.4595 65.3742 25.3664 63.6097 26.2082C63.5136 26.2539 63.3094 26.2918 63.3038 26.0976C62.9268 21.8885 61.2582 18.1638 58.5261 15.1046C55.2091 11.3909 50.6444 9.34612 45.6716 9.34612C41.7738 9.34612 37.618 11.6387 34.581 13.3143C33.659 13.8229 32.1463 14.7539 31.7047 14.7539C31.2656 14.7539 29.7657 13.8285 28.8411 13.3175C25.8119 11.6415 21.6636 9.34612 17.7383 9.34612C12.7658 9.34612 8.20081 11.3909 4.88378 15.1046C1.73425 18.6304 0 23.2703 0 28.1683C0 35.0945 2.48211 44.9323 6.63929 54.4848C8.48949 58.7367 10.4611 62.4134 12.3401 65.1178C14.6279 68.4098 16.6227 70.01 18.4382 70.01C19.2779 70.01 20.8134 69.6626 21.6561 67.3311C22.4124 65.2386 23.0909 62.8453 23.8139 60.2942C25.5876 54.0322 28.0172 45.4553 31.5842 45.4553C31.5842 45.4553 31.9479 45.4669 31.9723 45.7704C32.7521 50.9341 34.5299 56.6704 37.0814 62.5336C38.6361 66.1058 40.2931 69.196 41.8737 71.4704C43.8306 74.2856 45.5558 75.6541 47.1479 75.6541C47.9052 75.6541 49.2881 75.345 50.0362 73.2747C50.6729 71.5136 51.2423 69.5043 51.8471 67.3704C53.3137 62.1919 55.3228 55.0997 58.1526 55.0997H58.3544C59.5707 55.0997 60.6993 56.2259 61.805 58.5429C62.9695 60.9811 63.8628 64.2532 64.7265 67.4182C65.3044 69.5344 65.8503 71.5334 66.4685 73.2679C67.2028 75.3283 68.5733 75.6373 69.3252 75.6375C70.9116 75.6375 72.636 74.2481 74.5959 71.3906C76.1721 69.0934 77.8325 65.9734 79.3975 62.3679C82.9051 54.2828 85 46.0787 85 40.4222C84.9996 36.271 83.5292 32.3383 80.8585 29.3489ZM31.5065 40.4224C31.5065 40.9516 31.5244 41.5105 31.5595 42.0907C31.5627 42.1418 31.597 42.3154 31.3463 42.2985C28.5357 42.3055 26.4472 44.2253 24.5031 48.2774C22.9829 51.446 21.8353 55.4991 20.7253 59.4185L20.7175 59.4464C20.0162 61.9203 19.354 64.2568 18.637 66.2384C18.5421 66.5014 18.4741 66.7473 18.3678 66.7814C18.0833 66.8727 16.991 66.1838 14.9767 63.2857C13.2407 60.7871 11.3255 57.2064 9.583 53.2029C5.6519 44.1708 3.21011 34.5777 3.21011 28.1677C3.21011 20.4937 8.64456 12.556 17.7381 12.556C20.0956 12.556 23.2062 13.6383 26.0591 15.451C26.4729 15.7138 27.0667 16.1704 27.6412 16.6117C27.8731 16.7905 28.1016 16.966 28.3147 17.1265C29.0032 17.6414 29.9324 18.3153 31.0237 18.9574C31.5972 19.2963 32.1196 19.597 32.7034 19.8453C35.0703 20.8496 37.5795 21.3593 40.1611 21.3593C42.7977 21.3593 46.677 20.6814 46.613 20.1549C46.5493 19.6285 41.8697 20.3817 37.0102 18.8066C35.7478 18.3973 34.1206 17.9379 34.1214 17.4228C34.1217 17.2807 34.5786 17.03 34.9012 16.8374C35.2456 16.6318 35.6362 16.3983 36.1335 16.1238C38.8626 14.6181 42.6003 12.556 45.6718 12.556C54.6028 12.556 60.0036 20.2116 60.1945 27.7547C60.197 27.8385 60.209 27.9924 60.0397 28.0959C59.4599 28.4141 58.6059 28.9794 58.2537 28.9794C57.8539 28.9794 56.5892 28.1593 55.9549 27.8086C53.4004 26.3949 49.9014 24.4591 46.5631 24.4591C42.3409 24.4591 38.4646 26.1955 35.6487 29.3485C32.977 32.3383 31.5065 36.2711 31.5065 40.4224ZM76.5518 61.1337C75.0864 64.5116 73.4836 67.5313 72.039 69.6365C70.7441 71.5242 69.9198 72.6691 69.5617 72.44C69.4608 72.3754 69.3081 71.994 69.2714 71.8903C68.6935 70.2686 68.2806 68.6613 67.7181 66.6017C66.8188 63.3053 65.888 59.897 64.6039 57.2068C62.93 53.7024 60.886 51.9989 58.3546 51.9989H58.1528C55.7072 51.9989 53.7069 53.6892 52.0385 57.1665C50.7596 59.8324 49.7955 63.2345 48.8637 66.5257C48.2751 68.6012 47.72 70.5613 47.1202 72.2207C47.0787 72.3363 47.0175 72.4679 46.9507 72.4974C46.6596 72.6239 45.8267 71.7246 44.4206 69.7011C42.9756 67.6226 41.3794 64.6378 39.9254 61.297C36.6455 53.7602 34.6081 45.7618 34.6081 40.4226C34.6081 34.1001 39.0794 27.5607 46.5623 27.5607C48.4977 27.5607 51.0605 28.4548 53.4166 29.9519C53.7526 30.1652 54.2409 30.5407 54.7212 30.9094C54.9176 31.0607 55.1112 31.2091 55.2921 31.3447C55.8701 31.7784 56.6524 32.3458 57.5784 32.8908C58.0665 33.1789 58.5104 33.4343 59.0092 33.6459C61.016 34.4977 63.1429 34.9298 65.3323 34.9298C67.5743 34.9298 71.8841 34.2963 71.8396 33.5799C71.8109 33.1207 66.9963 33.7225 62.7483 32.3863C61.8849 32.1147 60.6557 31.6898 60.6252 31.5253C60.5962 31.3706 60.8802 31.2083 61.0373 31.1144C61.3234 30.9435 61.6473 30.7501 62.061 30.522C64.326 29.2723 67.428 27.5607 69.9463 27.5607C77.4291 27.5607 81.9004 34.1003 81.9004 40.4226C81.8988 45.5979 79.85 53.5341 76.5518 61.1337Z" fill="#1D110E"/>
</svg>
