<svg width="88" height="88" viewBox="0 0 88 88" fill="none" xmlns="http://www.w3.org/2000/svg">
<g clip-path="url(#clip0)">
<path d="M39.1528 26.4069C37.3106 26.4078 35.4875 26.7821 33.7937 27.5068C29.0706 29.5205 23.7304 29.5205 19.0071 27.5068C12.0816 24.5429 4.06479 27.7547 1.10089 34.6802C0.376008 36.374 0.00183218 38.197 0.000915527 40.0393C0.00861538 45.7652 1.34197 51.4114 3.89631 56.536L5.90414 60.5546L8.39742 82.9795C8.74117 86.0765 11.5305 88.3086 14.6275 87.9648C17.1707 87.6825 19.2055 85.7242 19.5849 83.1937L22.7984 61.7675C23.0941 59.7782 24.9466 58.4053 26.9359 58.701C28.5215 58.9367 29.7667 60.1817 30.0025 61.7675L33.2159 83.1937C33.6779 86.2752 36.5507 88.3989 39.6323 87.937C42.1628 87.5576 44.1211 85.5227 44.4034 82.9795L45.8026 70.3987L42.8854 70.0746L41.4877 82.6598C41.3249 84.1462 39.9879 85.2191 38.5015 85.0561C37.2781 84.9221 36.2991 83.9798 36.1184 82.7625L32.905 61.3319C32.364 57.7396 29.0132 55.2659 25.4209 55.8069C22.5664 56.2368 20.3256 58.4775 19.8959 61.3319L16.6825 82.7581C16.4628 84.2372 15.0858 85.2581 13.6067 85.0385C12.3894 84.8577 11.4471 83.8788 11.3131 82.6554L8.79195 59.9709C8.7716 59.7989 8.7221 59.6317 8.64529 59.4766L6.51866 55.2234C4.16782 50.5065 2.94079 45.3095 2.93419 40.0393C2.93529 34.1263 7.72955 29.3337 13.6425 29.3346C15.0899 29.3348 16.5221 29.6287 17.8528 30.1981C23.3133 32.5271 29.4875 32.5271 34.948 30.1981C40.3841 27.8718 46.6769 30.3928 49.0032 35.8289C49.5726 37.1595 49.8663 38.5919 49.8666 40.0393C49.8602 45.3111 48.6328 50.5098 46.2807 55.2278L44.1468 59.4766C44.0699 59.6317 44.0204 59.7989 44.0001 59.9709L43.8256 61.5402L46.7412 61.8643L46.8879 60.5546L48.8957 56.536C51.4532 51.4121 52.7895 45.7658 52.7999 40.0393C52.7959 32.5062 46.6859 26.4028 39.1528 26.4069Z" fill="#1D110E"/>
<path d="M86.5326 0H79.1994V2.93328H85.066V16.133C85.066 25.043 77.843 32.2661 68.933 32.2661C60.023 32.2661 52.7999 25.043 52.7999 16.133V2.93328H58.6665V0H51.3333C50.5233 0 49.8667 0.656688 49.8667 1.46664V16.133C49.8826 26.0847 57.5447 34.3527 67.4663 35.1245V60.1322C67.4663 62.5622 65.4964 64.5321 63.0664 64.5321H44.0001C41.5701 64.5321 39.6002 62.5622 39.6002 60.1322V48.2524C43.5684 47.4425 46.1286 43.5689 45.3186 39.6007C44.5087 35.6325 40.6351 33.0723 36.6669 33.8823C32.6987 34.6922 30.1385 38.5658 30.9485 42.534C31.5364 45.4139 33.787 47.6645 36.6669 48.2524V60.1322C36.6717 64.1801 39.9522 67.4606 44.0001 67.4654H63.0664C67.1143 67.4606 70.3948 64.1801 70.3996 60.1322V35.1245C80.3212 34.3527 87.9833 26.0847 87.9993 16.133V1.46664C87.9993 0.656688 87.3426 0 86.5326 0ZM36.6669 41.0659V45.196C34.9152 44.5767 33.7413 42.9238 33.7336 41.0659C33.7235 38.6359 35.6854 36.6579 38.1152 36.6478C40.5452 36.6377 42.5232 38.5996 42.5333 41.0294C42.541 42.9007 41.3644 44.5721 39.6 45.196V41.0659H36.6669Z" fill="#1D110E"/>
<path d="M10.9201 32.5125C7.76026 34.6138 5.86334 38.1585 5.86756 41.9532V43.9992H8.80084V41.9532C8.79772 39.1393 10.2048 36.5109 12.5481 34.9529L10.9201 32.5125Z" fill="#1D110E"/>
</g>
<defs>
<clipPath id="clip0">
<rect width="88" height="88" fill="white"/>
</clipPath>
</defs>
</svg>
