<svg width="90" height="90" viewBox="0 0 90 90" fill="none" xmlns="http://www.w3.org/2000/svg">
<path d="M56.8995 18.9656C53.5037 18.9656 49.924 20.9402 47.3069 22.3839C46.6828 22.7281 45.4338 23.5626 45.0002 23.5624C44.5695 23.5624 43.3254 22.7303 42.7018 22.3856C40.0933 20.9423 36.521 18.9656 33.1008 18.9656C28.7796 18.9656 24.8127 20.7424 21.9312 23.969C19.2001 27.0268 17.6956 31.0484 17.6956 35.294C17.6956 41.232 19.8192 49.6578 23.3765 57.8319C24.9614 61.4733 26.6507 64.6228 28.2621 66.942C30.2699 69.831 32.0476 71.2355 33.697 71.2355C34.4892 71.2355 35.9349 70.9138 36.713 68.76C37.3608 66.9682 37.9412 64.9207 38.5584 62.7425C39.9605 57.7936 42.0798 50.3142 44.8976 50.3142H45.1029C46.3058 50.3142 47.4309 51.4455 48.5418 53.7724C49.7234 56.2471 50.6315 59.5742 51.5103 62.7926C52.0988 64.9484 52.6547 66.9849 53.2844 68.7525C54.0485 70.8971 55.4817 71.2179 56.2688 71.2184C57.9124 71.2184 59.6892 69.7931 61.7007 66.861C63.3083 64.5175 65.0008 61.3373 66.5947 57.6638C70.1697 49.4264 72.3038 41.0641 72.3038 35.2945C72.3038 31.0488 70.7996 27.0268 68.0686 23.9694C65.1876 20.7424 61.2209 18.9656 56.8995 18.9656ZM63.5508 56.3421C62.0607 59.7756 60.4319 62.8441 58.9646 64.9829C57.6585 66.8867 57.3006 67.0887 56.6222 67.6963C56.5334 67.7758 56.4481 67.7409 56.4112 67.6382C55.8219 65.9924 55.284 64.0131 54.7114 61.9159C53.7952 58.5583 52.8473 55.0862 51.5371 52.3422C49.8189 48.7442 47.7142 46.9948 45.1029 46.9948H44.8976C42.3734 46.9948 40.3142 48.7302 38.6013 52.3004C37.2967 55.0195 36.3128 58.4921 35.3589 61.8589C34.7627 63.9632 34.1997 65.9501 33.5923 67.6298C33.5655 67.7038 33.5229 67.8655 33.3551 67.8157C32.944 67.6948 32.3165 66.9588 30.9875 65.0466C29.5193 62.9342 27.8973 59.9015 26.4197 56.507C23.0857 48.8452 21.0146 40.7165 21.0146 35.2934C21.0146 28.8984 25.5353 22.2838 33.1006 22.2838C35.0556 22.2838 37.6474 23.1886 40.0332 24.7044C40.3766 24.9227 40.8776 25.3077 41.3618 25.6802C41.5596 25.8325 41.7545 25.9819 41.9366 26.1192C42.5294 26.5629 43.3297 27.143 44.2718 27.6972C44.7707 27.9921 45.2247 28.2537 45.737 28.4708C47.7894 29.3421 49.9656 29.7839 52.2052 29.7839C54.5111 29.7839 59.2616 28.8068 59.2616 28.2756C59.2616 27.9134 53.6549 28.5924 49.5948 27.0354C48.951 26.7885 47.6374 26.359 47.6374 26.1904C47.6374 26.0697 47.7564 25.9603 47.8741 25.8895C48.1639 25.7162 48.4916 25.5202 48.9141 25.2871C51.2112 24.0196 54.3573 22.2838 56.8991 22.2838C64.4642 22.2838 68.985 28.8984 68.985 35.2934C68.9855 40.5513 66.9028 48.6166 63.5508 56.3421Z" fill="#1D110E"/>
<path d="M84.7567 21.1446C84.6462 18.5384 82.7654 15.776 80.3804 14.7195L48.8002 0.72595C47.7435 0.257782 46.3817 0 44.9654 0C43.5491 0 42.1875 0.257782 41.1308 0.72595L9.5504 14.7195C7.16023 15.7785 5.28777 18.5472 5.19534 21.1598C5.14837 22.4766 4.11918 53.5264 9.93214 63.699C15.7226 73.8318 40.0484 88.3952 41.0811 89.0101C42.1527 89.6487 43.5371 89.9998 44.9791 89.9998C46.4096 89.9998 47.7838 89.6534 48.8486 89.0242C49.8911 88.4089 74.4394 73.835 80.232 63.6983C86.0486 53.5198 84.8124 22.462 84.7567 21.1446ZM76.5081 61.5709C71.2767 70.7253 46.9133 85.1867 46.6682 85.3318C46.2657 85.569 45.6347 85.7114 44.9793 85.7114C44.3184 85.7114 43.6812 85.5673 43.2759 85.3256C43.0329 85.1806 18.8897 70.729 13.6562 61.5709C9.33229 54.0036 9.17681 29.9437 9.48177 21.3116C9.51587 20.3523 10.4104 19.0295 11.288 18.6407L42.8686 4.64737C43.3745 4.42304 44.1588 4.28922 44.9654 4.28922C45.7726 4.28922 46.5563 4.42304 47.0622 4.64737L78.6428 18.6407C79.5249 19.0317 80.4306 20.3611 80.4711 21.3251C80.8348 29.9542 80.8312 54.0049 76.5081 61.5709Z" fill="#1D110E"/>
</svg>
