<svg width="83" height="83" viewBox="0 0 83 83" fill="none" xmlns="http://www.w3.org/2000/svg">
<g clip-path="url(#clip0)">
<path d="M24.3018 65.2935C22.5408 65.2935 20.8837 64.6074 19.6387 63.3625C18.3923 62.1175 17.7077 60.4603 17.7077 58.6994C17.7077 56.9384 18.3937 55.2812 19.6387 54.0362L54.0336 19.6407C55.2786 18.3943 56.9358 17.7097 58.6968 17.7097C60.4577 17.7097 62.1149 18.3958 63.3599 19.6407C64.6063 20.8857 65.2909 22.5429 65.2909 24.3039C65.2909 26.0648 64.6048 27.722 63.3599 28.967L28.965 63.3622C27.72 64.6086 26.0628 65.2935 24.3018 65.2935ZM58.697 20.4747C57.6746 20.4747 56.7135 20.8732 55.9898 21.5966L21.5946 55.9918C20.8712 56.7152 20.4727 57.6767 20.4727 58.6991C20.4727 59.7215 20.8712 60.6826 21.5946 61.4063C23.0414 62.852 25.562 62.8532 27.0088 61.4063L61.404 27.0111C62.1274 26.2877 62.5259 25.3263 62.5259 24.3039C62.5259 23.2814 62.1274 22.3203 61.404 21.5966C60.6806 20.8732 59.7192 20.4747 58.697 20.4747Z" fill="#1D110E"/>
<path d="M53.7834 37.9697C53.4293 37.9697 53.0752 37.8341 52.8053 37.5645L45.435 30.1941C44.8942 29.6533 44.8942 28.7791 45.435 28.238L50.3486 23.3243C50.8895 22.7835 51.7637 22.7835 52.3048 23.3243L59.6752 30.6947C60.216 31.2355 60.216 32.1097 59.6752 32.6508L54.7615 37.5645C54.4917 37.8355 54.1375 37.9697 53.7834 37.9697ZM48.3692 29.2161L53.7834 34.6303L56.741 31.6728L51.3267 26.2585L48.3692 29.2161Z" fill="#1D110E"/>
<path d="M31.6722 60.0823C31.3181 60.0823 30.964 59.9467 30.6942 59.6771L23.3238 52.3067C22.783 51.7659 22.783 50.8917 23.3238 50.3506L28.2375 45.4369C28.7783 44.8961 29.6525 44.8961 30.1936 45.4369L37.564 52.8073C38.1048 53.3481 38.1048 54.2223 37.564 54.7634L32.6503 59.6771C32.3805 59.9467 32.0264 60.0823 31.6722 60.0823ZM26.2577 51.3272L31.672 56.7415L34.6295 53.7839L29.2153 48.3697L26.2577 51.3272Z" fill="#1D110E"/>
<path d="M62.3835 22.0021C62.0294 22.0021 61.6752 21.8664 61.4054 21.5969C60.8646 21.0561 60.8646 20.1819 61.4054 19.6408L68.7758 12.2704C69.3166 11.7296 70.1908 11.7296 70.7319 12.2704C71.2728 12.8112 71.2728 13.6854 70.7319 14.2265L63.3616 21.5969C63.0917 21.8679 62.7376 22.0021 62.3835 22.0021Z" fill="#1D110E"/>
<path d="M74.6675 16.661C72.5343 16.661 70.3999 15.8489 68.776 14.225C68.2352 13.6854 68.2352 12.81 68.776 12.2689C69.3168 11.7281 70.1911 11.7281 70.7322 12.2689C72.9012 14.438 76.4343 14.438 78.6034 12.2689C80.7725 10.0983 80.7725 6.56674 78.6034 4.39766C76.4343 2.22858 72.9027 2.22858 70.7322 4.39766C70.1913 4.93847 69.3171 4.93847 68.776 4.39766C68.2352 3.85685 68.2352 2.98116 68.776 2.44152C72.0256 -0.80802 77.3112 -0.80802 80.5607 2.44152C83.8088 5.69105 83.8088 10.9767 80.5607 14.2262C78.9336 15.8489 76.8004 16.661 74.6675 16.661Z" fill="#1D110E"/>
<path d="M13.2445 71.1366C12.8904 71.1366 12.5363 71.0009 12.2664 70.7314C11.7256 70.1906 11.7256 69.3163 12.2664 68.7752L19.6368 61.4049C20.1776 60.8641 21.0519 60.8641 21.593 61.4049C22.1338 61.9457 22.1338 62.8199 21.593 63.361L14.2226 70.7314C13.9516 71.0009 13.5986 71.1366 13.2445 71.1366Z" fill="#1D110E"/>
<path d="M8.33114 82.9974C6.19794 82.9974 4.06357 82.1853 2.43939 80.5614C-0.808693 77.3119 -0.808693 72.0263 2.43939 68.7767C5.68892 65.5286 10.9745 65.5272 14.2241 68.7767C14.7649 69.3164 14.7649 70.1918 14.2241 70.7329C13.6833 71.274 12.809 71.2737 12.2679 70.7329C10.0988 68.5638 6.56577 68.5638 4.39669 70.7329C2.22761 72.9034 2.22761 76.435 4.39669 78.6041C6.56577 80.7732 10.0974 80.7732 12.2679 78.6041C12.8087 78.0633 13.683 78.0633 14.2241 78.6041C14.7652 79.1449 14.7649 80.0206 14.2241 80.5602C12.5987 82.1853 10.4655 82.9974 8.33114 82.9974Z" fill="#1D110E"/>
<path d="M68.0912 77.3352C67.7234 77.3352 67.3719 77.1899 67.1117 76.93L62.7942 72.607C62.2546 72.0677 62.2546 71.192 62.7942 70.6523L69.2711 64.1673C69.5313 63.9071 69.8826 63.7621 70.2507 63.7621C70.6185 63.7621 70.97 63.9074 71.2302 64.1673L75.5477 68.4902C76.087 69.0299 76.087 69.9053 75.5477 70.4449L69.0708 76.93C68.8106 77.1899 68.4576 77.3352 68.0912 77.3352ZM65.7285 71.6289L68.0912 73.9943L72.6134 69.468L70.2507 67.1026L65.7285 71.6289Z" fill="#1D110E"/>
<path d="M75.6468 83C74.0532 83 72.555 82.3789 71.4291 81.2515L40.2901 50.0781C39.7505 49.5373 39.7505 48.6631 40.2901 48.122L46.7711 41.641C47.0313 41.3808 47.3825 41.2358 47.7492 41.2358C48.1158 41.2358 48.4685 41.3811 48.7272 41.641L79.8633 72.8118C82.1887 75.1387 82.1887 78.9235 79.8633 81.2501C78.7385 82.3804 77.2403 83 75.6468 83ZM43.2258 49.1015L73.3878 79.2968C74.5955 80.5059 76.701 80.5045 77.9086 79.2968C79.1565 78.0478 79.1565 76.017 77.9086 74.7691L47.7492 44.5778L43.2258 49.1015Z" fill="#1D110E"/>
<path d="M34.9839 42.0284C34.6161 42.0284 34.2646 41.8831 34.0044 41.6232L28.5458 36.1603L23.5603 35.1615C23.292 35.1075 23.0458 34.9763 22.8535 34.7826L4.50212 16.4104C-1.53052 10.3723 2.96953 1.15512 3.16439 0.766577C3.36362 0.368115 3.74137 0.0901245 4.1798 0.0180746C4.61705 -0.0539752 5.06656 0.0912913 5.38043 0.406911L40.2847 35.347C40.8243 35.8867 40.8243 36.7621 40.2847 37.3032L35.9631 41.6247C35.7032 41.882 35.3517 42.0284 34.9839 42.0284ZM24.5148 32.5318L29.5002 33.5306C29.7686 33.5846 30.0148 33.7158 30.207 33.9084L34.9836 38.689L37.3478 36.3248L4.92392 3.86385C4.09666 6.46464 3.23206 11.2246 6.45943 14.4561L24.5148 32.5318Z" fill="#1D110E"/>
</g>
<defs>
<clipPath id="clip0">
<rect width="83" height="83" fill="white"/>
</clipPath>
</defs>
</svg>
