<svg width="83" height="83" viewBox="0 0 83 83" fill="none" xmlns="http://www.w3.org/2000/svg">
<path d="M71.5372 6.42422C67.8367 2.2817 62.7434 0 57.1953 0C52.8505 0 48.1973 2.56732 44.7995 4.44184C43.6742 5.06246 41.9944 6.07927 41.4991 6.07947C41.0061 6.07968 39.334 5.06536 38.2135 4.44516C34.8229 2.5694 30.1794 0 25.8042 0C20.2561 0 15.1627 2.2817 11.4625 6.42422C7.94615 10.3612 6.00961 15.5425 6.00961 21.013C6.00961 24.5367 6.6572 28.6766 7.67255 33.3769C8.62775 37.7992 11.6562 41.5223 18.0566 44.3394C19.99 45.1906 23.4588 45.8546 24.0811 46.4769C24.8288 47.2247 25.628 49.9254 25.628 49.9254C25.628 49.9254 25.8095 50.5618 25.5426 50.5618C24.0653 50.5618 22.8635 51.7638 22.8635 53.2409C22.8635 54.718 24.0653 55.92 25.5426 55.92C25.5426 55.92 26.8317 55.92 27.2615 55.92C27.5986 55.92 27.7083 56.2664 27.7083 56.2664L28.6359 59.1299C28.6359 59.1299 28.7137 59.6553 28.0966 59.6553C26.6195 59.6553 25.4179 60.857 25.4179 62.3341C25.4179 63.8111 26.6195 65.0132 28.0966 65.0132C28.0966 65.0132 29.6874 65.0132 30.2176 65.0132C30.6065 65.0132 30.7364 65.3268 30.7364 65.3268L31.8152 68.5546C31.8152 68.5546 31.877 68.7487 31.6436 68.7487C31.4009 68.7487 30.6725 68.7487 30.6725 68.7487C29.195 68.7487 27.9933 69.9508 27.9933 71.4279C27.9933 72.9054 29.195 74.107 30.6725 74.107C30.6725 74.107 32.6779 74.107 33.3464 74.107C33.7094 74.107 33.7658 74.3918 33.7658 74.3918L35.4198 79.34L35.4296 79.3659C36.4163 81.7768 38.4134 83 41.3655 83H41.5296C44.4815 83 46.4784 81.777 47.4722 79.3483C47.4722 79.3483 48.7126 75.5683 49.171 74.3246C49.2619 74.0779 49.4303 74.107 49.4303 74.107H52.3272C53.8043 74.107 55.0061 72.9054 55.0061 71.4279C55.0061 69.9508 54.2789 68.7487 52.3272 68.7487C51.9163 68.7487 51.512 68.75 51.3361 68.75C51.0638 68.75 51.2324 68.2833 51.2324 68.2833L52.2177 65.3144C52.2177 65.3144 52.2695 65.0138 52.555 65.0138C53.1418 65.0138 54.9026 65.0138 54.9026 65.0138C56.3797 65.0138 57.5815 63.8118 57.5815 62.3347C57.5815 60.8578 56.5079 59.6562 55.0308 59.6562C54.7166 59.6562 54.6072 59.6663 54.4863 59.6663C54.1623 59.6663 54.3436 59.299 54.3436 59.299C54.3436 59.299 55.0449 56.9874 55.3417 56.0967C55.4067 55.9022 55.6141 55.9204 55.6141 55.9204H57.4565C58.9335 55.9204 60.1352 54.7184 60.1352 53.2413C60.1352 51.7642 58.9335 50.5622 57.4565 50.5622C57.2217 50.5622 57.2656 50.2523 57.3038 50.0988C57.5459 49.122 57.9983 47.1129 58.8595 46.4773C59.673 45.8768 62.9502 45.1724 64.8421 44.3398C71.1045 41.5829 74.3819 37.4198 75.2054 33.6305C76.2464 28.8408 76.9901 24.5079 76.9901 21.0132C76.9903 15.5425 75.0537 10.3618 71.5372 6.42422ZM44.3373 78.0929C43.7514 79.5125 41.977 79.6227 41.4475 79.6227C40.9189 79.6227 39.1523 79.5129 38.5615 78.1035L37.2875 74.2835C37.2875 74.2835 37.257 74.1064 37.5034 74.1064C39.5495 74.1064 43.5367 74.1064 45.5475 74.1064C45.6902 74.1064 45.6597 74.1885 45.6597 74.1885L44.3373 78.0929ZM47.4122 68.7483C44.4618 68.7483 38.5837 68.7483 35.6105 68.7483C35.429 68.7483 35.39 68.5681 35.39 68.5681L34.2419 65.1507C34.2419 65.1507 34.2232 65.0134 34.4566 65.0134C38.0345 65.0134 45.0905 65.0134 48.635 65.0134C48.769 65.0134 48.7346 65.1123 48.7346 65.1123L47.5234 68.6861C47.524 68.6859 47.49 68.7483 47.4122 68.7483ZM50.6404 59.5278C50.6404 59.5278 50.6101 59.6553 50.4761 59.6553C49.1982 59.6553 36.8565 59.6553 32.5943 59.6553C32.4041 59.6553 32.3609 59.5363 32.3609 59.5363L31.2367 56.137C31.2367 56.137 31.1639 55.9148 31.4491 55.9148C37.0237 55.9148 46.6138 55.92 51.6688 55.92C51.8503 55.92 51.8016 56.0602 51.8016 56.0602L50.6404 59.5278ZM53.2938 50.5609C47.3683 50.5609 29.6559 50.5479 29.6559 50.5479C29.6559 50.5479 29.4744 50.5479 29.3879 50.3664C29.1385 49.8432 28.6532 48.5429 28.4567 47.8007C28.3478 47.3894 28.7397 47.5142 28.7397 47.5142C32.8822 48.307 36.8849 48.6242 41.4493 48.6242C46.0791 48.6242 50.2523 48.2774 54.4434 47.4624C54.4434 47.4624 54.7373 47.4105 54.6688 47.5978C54.4411 48.222 53.9827 49.5989 53.7736 50.2322C53.706 50.4354 53.5012 50.5609 53.2938 50.5609ZM72.2387 32.5797C72.0954 33.2045 71.6382 34.3443 71.4016 34.9848C70.5177 37.3769 67.5075 39.5295 63.5013 41.2935C61.4445 42.1989 59.1182 42.9712 56.5873 43.5885L56.1459 43.6951C51.6805 44.7424 46.5985 45.2958 41.4491 45.2958C36.4431 45.2958 31.4908 44.7712 27.1145 43.7779L26.6841 43.6789C24.0116 43.0481 21.5606 42.246 19.3974 41.2939C15.4708 39.5652 12.2774 37.1647 11.3287 34.8552C11.024 34.1132 10.5118 32.3206 10.5118 32.3206C9.48899 27.9603 9.33757 24.1744 9.33757 21.0134C9.33757 12.3201 15.4969 3.32858 25.8039 3.32858C28.4789 3.32858 32.0023 4.55281 35.2298 6.60364C35.7011 6.90337 36.3734 7.42007 37.0233 7.91997C37.2815 8.11848 37.5362 8.31408 37.7737 8.4933C38.5443 9.06974 39.5856 9.82457 40.8053 10.5425C41.4468 10.9212 42.0305 11.2571 42.6765 11.5315C45.3187 12.6528 48.1202 13.2216 51.003 13.2216C53.9445 13.2216 57.5575 12.507 57.5077 12.0986C57.4579 11.6902 51.4357 11.6902 47.4259 10.6279C45.8252 10.2042 44.0113 9.51716 44.0113 9.14068C44.0113 8.73931 44.5773 8.42444 45.0216 8.15914C45.4091 7.92744 45.8486 7.66484 46.4089 7.35577C49.4894 5.65632 53.7078 3.32879 57.1951 3.32879C67.5021 3.32879 73.6615 12.3203 73.6615 21.0136C73.6617 24.1312 73.2522 28.1661 72.2387 32.5797Z" fill="#1D110E"/>
</svg>
