<svg width="86" height="86" viewBox="0 0 86 86" fill="none" xmlns="http://www.w3.org/2000/svg">
<path d="M79.4206 9.62367C74.9611 4.63087 68.8236 1.88143 62.1382 1.88143C56.9116 1.88143 51.2745 4.99111 47.1556 7.26318C45.6562 8.09088 43.6057 9.22248 42.9996 9.29698C42.3962 9.22375 40.3563 8.0951 38.8604 7.26761C34.7521 4.99449 29.1255 1.88143 23.862 1.88143C17.1764 1.88143 11.0387 4.63087 6.57899 9.62367C2.33643 14.3736 0 20.6259 0 27.2287C0 36.6612 3.38721 50.0749 9.06062 63.1118C11.5847 68.912 14.2714 73.924 16.8303 77.6061C19.876 81.9885 22.4898 84.1186 24.8211 84.1186C25.8557 84.1186 27.75 83.6798 28.8128 80.7404C29.8456 77.8842 30.7746 74.6057 31.7598 71.1282C34.367 61.9255 37.6115 50.4719 42.8352 50.4719H43.165C45.4875 50.4719 47.5665 52.4612 49.5205 56.5537C51.4562 60.6076 52.9278 65.9982 54.3529 71.2179C55.2948 74.6686 56.1848 77.9273 57.1843 80.7326C58.2255 83.6539 60.0985 84.0907 61.1236 84.0913C63.4433 84.0911 66.0545 81.9284 69.1068 77.4797C71.6591 73.7598 74.3516 68.698 76.8932 62.8416C82.5955 49.6999 86 36.3868 86 27.2285C86 20.6257 83.6634 14.3734 79.4206 9.62367ZM60.5259 16.3947C60.4723 16.3911 55.0718 16.1326 50.1556 14.8307C47.9388 14.2438 45.3176 13.0645 45.3176 12.7146C45.3176 12.374 48.1654 10.7158 48.8522 10.3368C52.6349 8.25001 57.8149 5.39209 62.1382 5.39209C74.8769 5.39209 82.4893 16.4947 82.4893 27.2287C82.4893 35.8012 79.111 48.9119 73.6723 61.4439C71.2544 67.0162 68.6047 72.0059 66.212 75.4933C63.4511 79.5173 61.6647 80.6871 61.1236 80.5805C60.7914 80.5148 60.75 80.2793 60.4917 79.5538C59.5355 76.871 58.6624 73.6735 57.7383 70.2882C56.2741 64.9257 54.7607 59.3802 52.6885 55.0405C50.0924 49.6037 46.9773 46.9608 43.165 46.9608H42.8352C39.1629 46.9608 36.1196 49.5826 33.5323 54.9757C31.467 59.2803 29.8986 64.8168 28.382 70.1711C27.4155 73.5826 26.5027 76.8054 25.5115 79.5464C25.2926 80.1514 25.2251 80.5465 24.8211 80.6077C24.5046 80.6558 23.1524 80.5509 19.7131 75.6022C17.3186 72.157 14.6787 67.2235 12.2796 61.7107C6.87065 49.2816 3.51066 36.069 3.51066 27.2285C3.51066 16.4945 11.1231 5.39188 23.862 5.39188C27.1732 5.39188 31.5247 6.90061 35.5019 9.42783C36.0852 9.79862 36.9066 10.4298 37.701 11.0406C38.018 11.2844 38.3303 11.5243 38.6211 11.7432C39.5535 12.4415 40.8134 13.3547 42.2928 14.2256C42.9236 14.5979 43.7085 15.0614 44.5421 15.4151C47.7298 16.7683 51.1099 17.4543 54.588 17.4543C58.1321 17.4543 60.5158 16.824 60.5392 16.8166C60.5392 16.8166 61.0725 16.6756 61.0556 16.537C61.0387 16.3983 60.5259 16.3947 60.5259 16.3947Z" fill="#1D110E"/>
</svg>
