<svg width="18" height="18" viewBox="0 0 18 18" fill="none" xmlns="http://www.w3.org/2000/svg">
<g clip-path="url(#clip0)">
<path d="M13.3738 7.61821C13.6139 6.59346 13.3141 5.53836 12.5717 4.79595C11.8291 4.05355 10.774 3.75362 9.74927 3.99381L9.99001 5.02104C10.657 4.86489 11.3431 5.05963 11.8256 5.54207C12.308 6.0245 12.5027 6.71074 12.3464 7.37747L13.3738 7.61821Z" fill="white"/>
<path d="M13.4556 3.91194C14.5231 4.9794 14.954 6.4973 14.6084 7.97208L15.6357 8.21282C16.0652 6.38002 15.5292 4.49325 14.2017 3.16583C13.5413 2.50541 12.7184 2.0264 11.8222 1.78086C10.9546 1.54314 10.0321 1.52611 9.1546 1.73169L9.39534 2.75906C10.8703 2.4134 12.3882 2.84447 13.4556 3.91194Z" fill="white"/>
<path d="M2.04138 1.20427L3.28106 -0.0354004L8.10407 4.78761L6.86439 6.02729L2.04138 1.20427Z" fill="white"/>
<path d="M11.9722 11.1349L13.2119 9.89526L18.0349 14.7183L16.7952 15.9579L11.9722 11.1349Z" fill="white"/>
<path d="M8.45602 9.58734C7.57834 8.7098 6.81369 7.78475 6.17703 6.83209L1.29538 1.95044L0.804291 2.44153L0.789871 2.4565C-0.146716 3.47013 -0.21387 5.18153 0.600769 7.27553C1.36514 9.24044 2.83224 11.3686 4.73164 13.268C6.65384 15.1902 8.80415 16.6657 10.7866 17.4228C11.7341 17.7847 12.6001 17.9647 13.3573 17.9647C14.2949 17.9647 15.0653 17.6884 15.6145 17.1392L16.0494 16.7043L11.2111 11.8662C10.2576 11.2287 9.33245 10.4638 8.45602 9.58734Z" fill="white"/>
</g>
<defs>
<clipPath id="clip0">
<rect width="18" height="18" fill="white" transform="translate(0 -0.000244141)"/>
</clipPath>
</defs>
</svg>
