<svg width="52" height="46" viewBox="0 0 52 46" fill="none" xmlns="http://www.w3.org/2000/svg">
<path d="M15.0124 4V10.321H17.3581V5.28396C17.3581 4.17939 18.2535 3.28396 19.3581 3.28396H32.1496C33.2542 3.28396 34.1496 4.17939 34.1496 5.28396V10.321H36.5927V4C36.5927 1.79086 34.8018 0 32.5927 0H19.0124C16.8033 0 15.0124 1.79086 15.0124 4Z" fill="white"/>
<path d="M3.05176e-05 14.3314C3.05176e-05 11.0177 2.68632 8.33142 6.00003 8.33142H45.6051C48.9188 8.33142 51.6051 11.0177 51.6051 14.3314V39.6017C51.6051 42.9154 48.9188 45.6017 45.6051 45.6017H6.00003C2.68632 45.6017 3.05176e-05 42.9155 3.05176e-05 39.6017V14.3314Z" fill="white"/>
<path d="M23.619 23.9083V17C23.619 16.4477 24.0668 16 24.619 16H27.381C27.9332 16 28.381 16.4477 28.381 17V23.9083H35C35.5523 23.9083 36 24.356 36 24.9083V27.851C36 28.4033 35.5523 28.851 35 28.851H28.381V35.7593C28.381 36.3116 27.9332 36.7593 27.381 36.7593H24.619C24.0668 36.7593 23.619 36.3116 23.619 35.7593V28.851H17C16.4477 28.851 16 28.4033 16 27.851V24.9083C16 24.356 16.4477 23.9083 17 23.9083H23.619Z" fill="#05474D"/>
</svg>
