<svg width="18" height="18" viewBox="0 0 18 18" fill="none" xmlns="http://www.w3.org/2000/svg">
<g clip-path="url(#clip0)">
<path d="M9 3.3396C5.87906 3.3396 3.33984 5.87868 3.33984 8.99976C3.33984 12.1208 5.87906 14.6599 9 14.6599C12.1209 14.6599 14.6602 12.1208 14.6602 8.99976C14.6602 5.87868 12.1209 3.3396 9 3.3396ZM12.0821 9.5271H8.47266V4.65205H9.52734V8.47241H12.0821V9.5271Z" fill="white"/>
<path d="M15.364 2.63579C13.6641 0.935928 11.4039 -0.000244141 9 -0.000244141C6.59605 -0.000244141 4.33589 0.935928 2.63603 2.63579C0.936172 4.33565 0 6.59581 0 8.99976C0 11.4037 0.936172 13.6639 2.63603 15.3637C4.33589 17.0636 6.59605 17.9998 9 17.9998C11.4039 17.9998 13.6641 17.0636 15.364 15.3637C17.0638 13.6639 18 11.4037 18 8.99976C18 6.59581 17.0638 4.33565 15.364 2.63579ZM9 15.7146C5.29747 15.7146 2.28516 12.7023 2.28516 8.99976C2.28516 5.29723 5.29747 2.28491 9 2.28491C12.7025 2.28491 15.7148 5.29723 15.7148 8.99976C15.7148 12.7023 12.7025 15.7146 9 15.7146Z" fill="white"/>
</g>
<defs>
<clipPath id="clip0">
<rect width="18" height="18" fill="white" transform="translate(0 -0.000244141)"/>
</clipPath>
</defs>
</svg>
