<svg width="18" height="18" viewBox="0 0 18 18" fill="none" xmlns="http://www.w3.org/2000/svg">
<g clip-path="url(#clip0)">
<path d="M9.01376 3.65503C7.33862 3.65503 5.97577 5.01788 5.97577 6.69289C5.97577 8.36803 7.33862 9.73088 9.01376 9.73088C10.6889 9.73088 12.0516 8.36803 12.0516 6.69289C12.0516 5.01788 10.6888 3.65503 9.01376 3.65503Z" fill="white"/>
<path d="M9.04105 -0.000106812L9.01289 -0.000244141C5.32259 -0.000244141 2.32031 3.00231 2.32031 6.69303C2.32031 8.71643 3.35454 10.2946 4.50686 11.8662L9.00397 17.9997C9.00397 17.9997 13.2546 12.2289 13.5204 11.8663C14.6728 10.2947 15.707 8.71657 15.707 6.69316C15.707 3.01151 12.7194 0.0144501 9.04105 -0.000106812ZM9.01372 10.7854C6.75713 10.7854 4.92132 8.94961 4.92132 6.69303C4.92132 4.43658 6.75713 2.60076 9.01372 2.60076C11.2703 2.60076 13.1061 4.43658 13.1061 6.69303C13.1061 8.94961 11.2702 10.7854 9.01372 10.7854Z" fill="white"/>
</g>
<defs>
<clipPath id="clip0">
<rect width="18" height="18" fill="white" transform="translate(0 -0.000244141)"/>
</clipPath>
</defs>
</svg>
