<svg width="18" height="18" viewBox="0 0 18 18" fill="none" xmlns="http://www.w3.org/2000/svg">
<path d="M9.01375 3.65527C7.33861 3.65527 5.97575 5.01813 5.97575 6.69313C5.97575 8.36827 7.33861 9.73112 9.01375 9.73112C10.6889 9.73112 12.0516 8.36827 12.0516 6.69313C12.0516 5.01813 10.6888 3.65527 9.01375 3.65527Z" fill="#08818C"/>
<path d="M9.04108 0.000137329L9.01292 0C5.32262 0 2.32034 3.00256 2.32034 6.69327C2.32034 8.71667 3.35457 10.2949 4.50689 11.8664L9.004 18C9.004 18 13.2546 12.2291 13.5205 11.8666C14.6728 10.295 15.707 8.71681 15.707 6.69341C15.707 3.01176 12.7194 0.0146942 9.04108 0.000137329ZM9.01375 10.7857C6.75716 10.7857 4.92135 8.94986 4.92135 6.69327C4.92135 4.43682 6.75716 2.60101 9.01375 2.60101C11.2703 2.60101 13.1061 4.43682 13.1061 6.69327C13.1061 8.94986 11.2702 10.7857 9.01375 10.7857Z" fill="#08818C"/>
</svg>
