<svg width="39" height="35" viewBox="0 0 39 35" fill="none" xmlns="http://www.w3.org/2000/svg">
<g clip-path="url(#clip0)">
<path d="M23.3321 27.5606C22.3568 27.9696 21.9478 29.1337 22.3883 30.0775L23.9299 33.3181C24.3703 34.2302 25.44 34.6395 26.3839 34.2302C29.0581 33.0975 31.3548 31.6188 33.1796 29.8255C35.4133 27.7179 36.9235 25.2954 37.7415 22.6212C38.5595 19.9152 38.9999 16.2345 38.9999 11.5467L38.9999 1.88803C38.9999 0.849804 38.1505 0.000343248 37.1123 0.000343158L24.7479 0.000342077C23.7097 0.000341986 22.8602 0.849803 22.8602 1.88803L22.8602 14.2524C22.8602 15.291 23.7096 16.1401 24.7479 16.1401L30.6626 16.1401C30.5997 19.318 29.8446 21.8661 28.4603 23.7856C27.3277 25.3265 25.6288 26.585 23.3321 27.5606Z" fill="#08818C"/>
<path d="M1.12028 27.5606C0.144978 27.9696 -0.263708 29.1337 0.17644 30.0775L1.71805 33.2863C2.15851 34.1987 3.22821 34.6077 4.17205 34.1987C6.81482 33.0661 9.08036 31.5874 10.9363 29.8255C13.1704 27.6861 14.7117 25.2636 15.53 22.5894C16.348 19.9469 16.7567 16.2656 16.7567 11.5464L16.7567 1.88771C16.7567 0.84948 15.9072 1.89992e-05 14.869 1.89085e-05L2.50459 1.78275e-05C1.46636 1.77368e-05 0.616902 0.849478 0.616902 1.88771L0.616901 14.2521C0.616901 15.2906 1.46636 16.1398 2.50459 16.1398L8.45082 16.1398C8.38789 19.3177 7.6325 21.8658 6.24851 23.7852C5.1159 25.3265 3.41697 26.585 1.12028 27.5606Z" fill="#08818C"/>
</g>
<defs>
<clipPath id="clip0">
<rect width="39" height="34.4" fill="white"/>
</clipPath>
</defs>
</svg>
